<?xml version="1.0" encoding="UTF-8"?>
<svg id="Layer_1" xmlns="http://www.w3.org/2000/svg" version="1.1" viewBox="0 0 20 20">
  <!-- Generator: Adobe Illustrator 29.4.0, SVG Export Plug-In . SVG Version: 2.1.0 Build 152)  -->
  <defs>
    <style>
      .st0 {
        fill: #520793;
      }
    </style>
  </defs>
  <path class="st0" d="M10.02,20c1.01-1.01,2.04-2.04,3.08-3.07.51-.51.98-1.18,1.86-.88.84.29.91,1.01.98,1.78.09,1,1.07,1.62,2.01,1.39.92-.23,1.45-1.2,1.17-2.1-.22-.7-.82-1.12-1.7-1.12-.67,0-1.14-.29-1.41-.88-.28-.61-.01-1.09.43-1.52.26-.24.5-.5.75-.75.93-.93,1.86-1.86,2.81-2.8-1.23-1.23-2.4-2.41-3.58-3.57-.42-.41-.68-.87-.44-1.46.26-.63.75-.92,1.45-.93.92-.01,1.56-.5,1.71-1.28.19-.94-.43-1.83-1.37-1.97-1-.15-1.86.6-1.87,1.73-.01.7-.28,1.21-.91,1.46-.6.24-1.1-.02-1.51-.49-.14-.16-.3-.3-.45-.45-1.01-1.02-2.03-2.03-3.08-3.09-1.27,1.27-2.41,2.53-3.66,3.69-.72.67-.27,2.17.7,2.23,1.12.06,2.05.18,2.18,1.4.15,1.36-.94,2.03-1.86,1.91-1.65-.22-1.26-1.88-1.45-2.43-.19-.56-1.38-1.32-2.21-.46-1.22,1.24-2.47,2.46-3.65,3.65,3.35,3.35,6.66,6.65,10.02,10.01Z"/>
</svg>