<?xml version="1.0" encoding="UTF-8"?>
<svg id="Layer_1" xmlns="http://www.w3.org/2000/svg" version="1.1" viewBox="0 0 20 18.7">
  <!-- Generator: Adobe Illustrator 29.4.0, SVG Export Plug-In . SVG Version: 2.1.0 Build 152)  -->
  <defs>
    <style>
      .st0 {
        fill: #520793;
      }
    </style>
  </defs>
  <path class="st0" d="M15.5,18.2c-.1,0-.3,0-.4-.1l-5.1-3.7-5.1,3.7c-.1.1-.2.1-.4.1-.1,0-.3,0-.4-.1,0-.1-.1-.2-.2-.3v-.4l2-5.9L.8,8c-.1-.1-.2-.2-.3-.4v-.4c0-.1.1-.2.2-.3.2-.1.3-.1.4-.1h6.3l1.9-5.9c0-.1.1-.2.2-.3.2-.1.4-.1.5-.1s.3,0,.4.1c.1.1.2.2.2.3l1.9,5.9h6.3c.1,0,.3,0,.4.1s.2.2.2.3v.4c0,.1-.1.2-.2.3l-5.1,3.5,2,5.9v.3c0,.1-.1.2-.1.3q-.1.1-.2.2c-.1.1-.2.1-.3.1Z"/>
</svg>